<svg width="200" height="200" viewBox="0 0 200 200" fill="none" xmlns="http://www.w3.org/2000/svg">
<rect width="200" height="200" fill="white"/>
<path d="M24 150V100C24 86.2305 28.8828 74.4629 38.6484 64.6973C48.4141 54.8991 60.1979 50 74 50C87.7695 50 99.5371 54.8991 109.303 64.6973C119.101 74.4629 124 86.2305 124 100H99C99 93.1315 96.5423 87.2559 91.627 82.373C86.7441 77.4577 80.8685 75 74 75C67.099 75 61.207 77.4577 56.3242 82.373C51.4414 87.2559 49 93.1315 49 100V150H24ZM149 150V100C149 93.1315 146.542 87.2559 141.627 82.373C136.744 77.4577 130.868 75 124 75V50C137.77 50 149.537 54.8991 159.303 64.6973C169.101 74.4629 174 86.2305 174 100V150H149Z" fill="black"/>
</svg>
