<svg width="182" height="48" viewBox="0 0 182 48" fill="none" xmlns="http://www.w3.org/2000/svg">
<path d="M0 48V24C0 17.3906 2.34375 11.7422 7.03125 7.05469C11.7188 2.35156 17.375 0 24 0C30.6094 0 36.2578 2.35156 40.9453 7.05469C45.6484 11.7422 48 17.3906 48 24H36C36 20.7031 34.8203 17.8828 32.4609 15.5391C30.1172 13.1797 27.2969 12 24 12C20.6875 12 17.8594 13.1797 15.5156 15.5391C13.1719 17.8828 12 20.7031 12 24V48H0ZM60 48V24C60 20.7031 58.8203 17.8828 56.4609 15.5391C54.1172 13.1797 51.2969 12 48 12V0C54.6094 0 60.2578 2.35156 64.9453 7.05469C69.6484 11.7422 72 17.3906 72 24V48H60ZM102.75 48C96.125 48 90.4688 45.6562 85.7812 40.9688C81.0938 36.2812 78.75 30.625 78.75 24C78.75 17.3906 81.0938 11.7422 85.7812 7.05469C90.4688 2.35156 96.125 0 102.75 0C109.359 0 115.008 2.35156 119.695 7.05469C124.398 11.7422 126.75 17.3906 126.75 24H114.75C114.75 20.7031 113.57 17.8828 111.211 15.5391C108.867 13.1797 106.047 12 102.75 12C99.4375 12 96.6094 13.1797 94.2656 15.5391C91.9219 17.8828 90.75 20.7031 90.75 24C90.75 27.3125 91.9219 30.1406 94.2656 32.4844C96.6094 34.8281 99.4375 36 102.75 36V48ZM157.5 48C150.875 48 145.219 45.6562 140.531 40.9688C135.844 36.2812 133.5 30.625 133.5 24V0H145.5V24C145.5 27.3125 146.672 30.1406 149.016 32.4844C151.359 34.8281 154.188 36 157.5 36V48ZM169.5 48V0H181.5V48H169.5Z" fill="black"/>
</svg>
